<svg id="logo_diyar" xmlns="http://www.w3.org/2000/svg" xmlns:xlink="http://www.w3.org/1999/xlink" width="75.74" height="75.74" viewBox="0 0 75.74 75.74">
  <defs>
    <clipPath id="clip-path">
      <path id="Path_32" data-name="Path 32" d="M530.173,778.9c.1-.274.187-.542.267-.806l.133-.455q.223.764.4,1.247l1.232,3.3h-3.248Zm-.623-3.079-3.617,9.135-.816.338a.418.418,0,0,0-.3.382v.748h3.618v-.748a.42.42,0,0,0-.3-.382l-.3-.118.593-1.6h4.269l.593,1.6-.3.118a.416.416,0,0,0-.3.382v.748h3.618v-.748a.382.382,0,0,0-.282-.382l-.814-.338-3.634-9.135Zm7.2,0v2.507h.858a.331.331,0,0,0,.342-.279c.028-.156.054-.36.074-.616h2.179v7.531l-.687.122a.435.435,0,0,0-.376.461v.877h4.126v-.877a.435.435,0,0,0-.375-.461l-.688-.122v-7.517h2.181a5.655,5.655,0,0,0,.074.6.335.335,0,0,0,.355.279h.844v-2.507Zm14.686,3.079q.149-.411.267-.806l.133-.455c.147.509.282.925.4,1.247l1.229,3.3h-3.246Zm-.624-3.079-3.617,9.135-.816.338a.416.416,0,0,0-.3.382v.748H549.7v-.748a.416.416,0,0,0-.3-.382l-.3-.118.592-1.6h4.271l.592,1.6-.3.118a.416.416,0,0,0-.3.382v.748h3.618v-.748a.382.382,0,0,0-.281-.382l-.817-.338-3.631-9.135Zm11.963,1.524h1.173a2.587,2.587,0,0,1,1.646.426,1.528,1.528,0,0,1,.532,1.247,1.961,1.961,0,0,1-.133.733,1.657,1.657,0,0,1-.4.586,1.9,1.9,0,0,1-.7.382,3.315,3.315,0,0,1-.976.148h-1.144Zm-3.113-1.524v.877a.435.435,0,0,0,.377.461l.75.139v7.666l-.687.122a.435.435,0,0,0-.376.461v.877h4.11v-.877a.436.436,0,0,0-.375-.461l-.688-.122v-2.691h.758a.926.926,0,0,1,.444.089.8.8,0,0,1,.282.264l2.253,3.4a1.039,1.039,0,0,0,.3.294.819.819,0,0,0,.444.1h2v-.855a.435.435,0,0,0-.376-.46l-.824-.136-1.691-2.464a1.963,1.963,0,0,0-.651-.616,4.35,4.35,0,0,0,1.009-.47,2.754,2.754,0,0,0,.741-.674,2.948,2.948,0,0,0,.458-.865,3.324,3.324,0,0,0,.165-1.013,3.1,3.1,0,0,0-.238-1.231,2.456,2.456,0,0,0-.741-.968,3.676,3.676,0,0,0-1.275-.63,7.01,7.01,0,0,0-1.881-.22Zm12.585,0v.877a.435.435,0,0,0,.375.461l.687.122v7.683l-.687.122a.435.435,0,0,0-.375.461v.877h4.126v-.877a.436.436,0,0,0-.376-.461l-.687-.122v-7.683l.687-.122a.436.436,0,0,0,.376-.461v-.877Zm-56.26,8.909a3.318,3.318,0,0,1-1.161-.775,3.367,3.367,0,0,1-.729-1.214,5.244,5.244,0,0,1,0-3.234,3.378,3.378,0,0,1,.729-1.214,3.315,3.315,0,0,1,1.161-.773,4.528,4.528,0,0,1,3.015,0,3.248,3.248,0,0,1,1.142.773,3.4,3.4,0,0,1,.715,1.214,5.274,5.274,0,0,1,0,3.234,3.388,3.388,0,0,1-.715,1.214,3.274,3.274,0,0,1-1.142.775,4,4,0,0,1-1.508.257,3.963,3.963,0,0,1-1.507-.257m-.824-8.683a5.073,5.073,0,0,0-1.8,1.145,5.194,5.194,0,0,0-1.165,1.739,6.148,6.148,0,0,0,0,4.385,5.4,5.4,0,0,0,1.165,1.74,5.073,5.073,0,0,0,1.8,1.145,6.475,6.475,0,0,0,2.331.416,8.649,8.649,0,0,0,.868-.058,4.554,4.554,0,0,0,.809-.15l1.647,1.739a1.372,1.372,0,0,0,.545.358,2.448,2.448,0,0,0,.684.1h1.71l-2.843-2.972a4.727,4.727,0,0,0,.948-.847,5.3,5.3,0,0,0,.715-1.056,6.928,6.928,0,0,0,.45-1.234,5.849,5.849,0,0,0,.156-1.383,5.577,5.577,0,0,0-.42-2.185,5.394,5.394,0,0,0-1.151-1.739,5.591,5.591,0,0,0-1.8-1.145,6.158,6.158,0,0,0-2.315-.414,6.541,6.541,0,0,0-2.331.414" transform="translate(-511.791 -775.637)" fill="none"/>
    </clipPath>
    <linearGradient id="linear-gradient" x1="-11.243" y1="7.244" x2="-11.221" y2="7.244" gradientUnits="objectBoundingBox">
      <stop offset="0" stop-color="#eec494"/>
      <stop offset="0.317" stop-color="#e8b884"/>
      <stop offset="0.93" stop-color="#d8985c"/>
      <stop offset="1" stop-color="#d79557"/>
    </linearGradient>
    <clipPath id="clip-path-2">
      <path id="Path_33" data-name="Path 33" d="M556.189,819.685a1.66,1.66,0,0,1-.586-.4,1.885,1.885,0,0,1-.382-.7,3.341,3.341,0,0,1-.148-.979v-1.141h3.521v1.172a2.58,2.58,0,0,1-.426,1.644,1.527,1.527,0,0,1-1.247.533,1.966,1.966,0,0,1-.734-.132m3.052-6.332a.434.434,0,0,0-.46.376l-.141.75h-7.664l-.122-.685a.436.436,0,0,0-.461-.376h-.877v4.11h.877a.435.435,0,0,0,.461-.376l.122-.685h2.691v.755a.947.947,0,0,1-.089.446.8.8,0,0,1-.264.282l-3.4,2.253a1.028,1.028,0,0,0-.3.3.834.834,0,0,0-.1.444v2h.854a.437.437,0,0,0,.461-.375l.136-.826,2.464-1.69a1.982,1.982,0,0,0,.616-.653,4.318,4.318,0,0,0,.468,1.009,2.789,2.789,0,0,0,.675.742,3.042,3.042,0,0,0,.865.46,3.4,3.4,0,0,0,1.012.162,3.106,3.106,0,0,0,1.233-.238,2.454,2.454,0,0,0,.968-.739,3.722,3.722,0,0,0,.63-1.277,7.064,7.064,0,0,0,.22-1.881v-4.286Zm-5.486-8.008,3.285,1.216c.275.1.543.187.807.265l.455.135c-.509.146-.925.281-1.247.4l-3.3,1.23Zm-4.238-4.14v3.621h.746a.413.413,0,0,0,.382-.3l.118-.3,1.6.592V809.1l-1.6.592-.118-.3a.413.413,0,0,0-.382-.3h-.746v3.617h.746a.378.378,0,0,0,.382-.281l.339-.816,9.136-3.632v-2.047l-9.136-3.618-.339-.817a.413.413,0,0,0-.382-.3Zm9.724-4.876a.433.433,0,0,0-.46.375l-.124.687h-7.681l-.122-.687a.435.435,0,0,0-.461-.375h-.877v4.126h.877a.436.436,0,0,0,.461-.376l.122-.687h7.681l.124.687a.434.434,0,0,0,.46.376h.878v-4.126Zm-5.984-3.127a3.424,3.424,0,0,1-1.175-.616,3.014,3.014,0,0,1-.734-.986,3.083,3.083,0,0,1-.264-1.3v-1.65h7.466v1.65a3.087,3.087,0,0,1-.264,1.3,3,3,0,0,1-.734.986,3.638,3.638,0,0,1-1.173.616,5.688,5.688,0,0,1-3.123,0m5.984-7.616a.433.433,0,0,0-.46.376l-.124.687h-7.681l-.122-.685a.435.435,0,0,0-.461-.376h-.877v4.864a5.183,5.183,0,0,0,.394,2.064A4.679,4.679,0,0,0,551,794.121a5.025,5.025,0,0,0,1.687,1.024,6.3,6.3,0,0,0,4.28,0,5.087,5.087,0,0,0,1.673-1.024,4.676,4.676,0,0,0,1.085-1.608,5.188,5.188,0,0,0,.4-2.064v-4.864Z" transform="translate(-549.516 -785.586)" fill="none"/>
    </clipPath>
    <linearGradient id="linear-gradient-2" x1="-73.533" y1="2.138" x2="-73.399" y2="2.138" xlink:href="#linear-gradient"/>
    <clipPath id="clip-path-3">
      <path id="Path_34" data-name="Path 34" d="M538.926,826.241a.918.918,0,1,0,.919-.918.921.921,0,0,0-.919.918m2.432,0a.918.918,0,1,0,.919-.918.921.921,0,0,0-.919.918m-17.674-9.631v.846a.4.4,0,0,0,.348.428l.714.129v6.579c0,.68-.323,1.026-.963,1.026a4.02,4.02,0,0,1-.894-.115l-.294,1.545a5.664,5.664,0,0,0,1.6.253,2.544,2.544,0,0,0,1.928-.665,2.926,2.926,0,0,0,.627-2.06v-6.562l.712-.128a.4.4,0,0,0,.35-.43v-.846ZM563.67,813.8v.846a.4.4,0,0,0,.349.428l.712.129v6.755H551.093v-1.2a4.7,4.7,0,0,0-1.04-3.269,3.859,3.859,0,0,0-2.987-1.138,7.759,7.759,0,0,0-.871.052v1.827a4.452,4.452,0,0,1,.7-.062,1.989,1.989,0,0,1,1.657.687,3.416,3.416,0,0,1,.533,2.1v1h-4.962v1.8h22.61V815.2l.711-.128a.4.4,0,0,0,.35-.43V813.8Zm4.97,0v9.963h2V815.2l.711-.128a.4.4,0,0,0,.35-.43V813.8Zm-41.049-1.514v.846a.4.4,0,0,0,.348.429l.714.128v10.075h14.161V818.93l.711-.128a.4.4,0,0,0,.35-.429v-.847h-4.254v.847a.4.4,0,0,0,.35.427l.711.129v3.029H530.66v-8.27l.711-.128a.4.4,0,0,0,.35-.429v-.846Z" transform="translate(-522.594 -812.287)" fill="none"/>
    </clipPath>
    <linearGradient id="linear-gradient-3" x1="-15.098" y1="2.797" x2="-15.069" y2="2.797" gradientUnits="objectBoundingBox">
      <stop offset="0" stop-color="#d79557"/>
      <stop offset="0.07" stop-color="#d8985c"/>
      <stop offset="0.683" stop-color="#e8b884"/>
      <stop offset="1" stop-color="#eec494"/>
    </linearGradient>
    <clipPath id="clip-path-4">
      <path id="Path_35" data-name="Path 35" d="M513.427,832.2v2h10.452l.128.711a.4.4,0,0,0,.428.35h.847V832.2Zm8.7-9.086a.917.917,0,1,0,.917-.918.917.917,0,0,0-.917.918m0-2.43a.917.917,0,1,0,.917-.918.918.918,0,0,0-.917.918m-6.9,1.74a1.945,1.945,0,0,1,.562-1.478,2.181,2.181,0,0,1,1.554-.528,2.063,2.063,0,0,1,1.336.383,1.548,1.548,0,0,1,.062,2.161,2.053,2.053,0,0,1-1.308.338H515.23Zm0-13.694h.661a2.995,2.995,0,0,1,3.231,3.248,1.719,1.719,0,0,1-.678,1.5,3.676,3.676,0,0,1-2.079.474H515.23Zm-5.34-7.992a2.543,2.543,0,0,0,.664,1.928,2.887,2.887,0,0,0,2.06.707h.813V830.3h10.452l.128.709a.4.4,0,0,0,.428.352h.846v-4.131h-.846a.4.4,0,0,0-.428.35l-.128.712H515.23V825.3h2.039a3.767,3.767,0,0,0,2.676-.846,3.345,3.345,0,0,0,.89-2.535,3.909,3.909,0,0,0-.423-1.839,3.061,3.061,0,0,0-1.161-1.234,3.24,3.24,0,0,0-2.957-.143,2.562,2.562,0,0,0-1.006.755l-.058.074v-3.574h1.549a4.318,4.318,0,0,0,3.023-.956,3.639,3.639,0,0,0,1.031-2.8,4.036,4.036,0,0,0-.455-1.928,3.863,3.863,0,0,0-1.159-1.3l-.079-.057h4.739l.128.709a.4.4,0,0,0,.428.352h.846v-4.258h-.846a.4.4,0,0,0-.428.349l-.128.712H515.23v-3.415h4.035l.129.714a.4.4,0,0,0,.43.35h.844v-4.208h-.844a.4.4,0,0,0-.43.349l-.129.714H512.6c-.681,0-1.027-.326-1.027-.968a3.919,3.919,0,0,1,.115-.888l-1.582-.065a4.081,4.081,0,0,0-.214,1.368m.142-3.608a.917.917,0,1,0,.918-.918.916.916,0,0,0-.918.918m0-2.43a.917.917,0,1,0,.918-.918.917.917,0,0,0-.918.918m12.1-4.211a.917.917,0,1,0,.917-.918.918.918,0,0,0-.917.918m0-2.43a.917.917,0,1,0,.917-.918.918.918,0,0,0-.917.918m-6.9,2.052c0-1.464.712-2.208,2.115-2.208a2.1,2.1,0,0,1,1.336.375,1.33,1.33,0,0,1,.471,1.1,1.638,1.638,0,0,1-.18.843,1.063,1.063,0,0,1-.654.436,5.555,5.555,0,0,1-1.4.13H515.23Zm-.793-3.035a5.106,5.106,0,0,0-1.01,3.4v7.734h5.838l.129.711a.4.4,0,0,0,.43.35h.844v-4.258h-.844a.4.4,0,0,0-.43.35l-.129.712H515.23V792.79H517.3a3.752,3.752,0,0,0,2.657-.833,3.372,3.372,0,0,0,.878-2.55,3.244,3.244,0,0,0-3.489-3.5,3.636,3.636,0,0,0-2.909,1.175" transform="translate(-509.89 -785.903)" fill="none"/>
    </clipPath>
    <linearGradient id="linear-gradient-4" x1="-46.999" y1="1.609" x2="-46.907" y2="1.609" xlink:href="#linear-gradient-3"/>
  </defs>
  <path id="Path_31" data-name="Path 31" d="M531.735,795.356h28.024V823.38H531.735Zm-23.859,51.883h75.74V771.5h-75.74Z" transform="translate(-507.876 -771.499)" fill="#251459"/>
  <g id="Group_18" data-name="Group 18" transform="translate(5.555 5.871)">
    <g id="Group_17" data-name="Group 17" clip-path="url(#clip-path)">
      <rect id="Rectangle_24" data-name="Rectangle 24" width="64.584" height="12.976" transform="translate(0)" fill="url(#linear-gradient)"/>
    </g>
  </g>
  <g id="Group_20" data-name="Group 20" transform="translate(59.079 19.987)">
    <g id="Group_19" data-name="Group 19" clip-path="url(#clip-path-2)">
      <rect id="Rectangle_25" data-name="Rectangle 25" width="10.603" height="37.36" fill="url(#linear-gradient-2)"/>
    </g>
  </g>
  <g id="Group_22" data-name="Group 22" transform="translate(20.882 57.87)">
    <g id="Group_21" data-name="Group 21" clip-path="url(#clip-path-3)">
      <rect id="Rectangle_26" data-name="Rectangle 26" width="49.11" height="15.014" transform="translate(0)" fill="url(#linear-gradient-3)"/>
    </g>
  </g>
  <g id="Group_24" data-name="Group 24" transform="translate(2.858 20.436)">
    <g id="Group_23" data-name="Group 23" clip-path="url(#clip-path-4)">
      <rect id="Rectangle_27" data-name="Rectangle 27" width="15.393" height="49.366" transform="translate(0)" fill="url(#linear-gradient-4)"/>
    </g>
  </g>
</svg>
