<svg id="logo_footer" xmlns="http://www.w3.org/2000/svg" width="91.23" height="114.372" viewBox="0 0 91.23 114.372">
  <g id="Group_32" data-name="Group 32" transform="translate(-490.533 -34.016)" opacity="0.411">
    <g id="Group_26" data-name="Group 26" transform="translate(490.533 34.016)">
      <path id="Path_36" data-name="Path 36" d="M516.635,53.03q2.531,1.041,4.975,2.277a70.04,70.04,0,0,0-9.691,4.666,72.977,72.977,0,0,0-21.386,18.88,74.26,74.26,0,0,1,17.841-20.238,71.119,71.119,0,0,1,8.262-5.584" transform="translate(-490.533 -28.504)" fill="#fff"/>
      <path id="Path_37" data-name="Path 37" d="M528.939,47.288a38.526,38.526,0,0,1,3.887,5.361q-.774.089-1.548.2-2.517.36-4.971.89a70.66,70.66,0,0,0-10.424,3.116c-1.5-.908-3.021-1.759-4.579-2.558a69.959,69.959,0,0,1,9.3-4.382,70.708,70.708,0,0,1,8.333-2.629" transform="translate(-484.512 -30.169)" fill="#fff"/>
      <path id="Path_38" data-name="Path 38" d="M507.056,50.555q1.829.464,3.623,1.034a70.254,70.254,0,0,0-8.335,5.91h0a73.836,73.836,0,0,0-11.808,12.236,75.194,75.194,0,0,1,9.652-12.758h0a72.807,72.807,0,0,1,6.867-6.422" transform="translate(-490.533 -29.221)" fill="#fff"/>
      <path id="Path_39" data-name="Path 39" d="M512.642,45.4q2.527,1.045,4.967,2.283a69.965,69.965,0,0,0-9.7,4.668q-1.753-.728-3.546-1.361a71.2,71.2,0,0,1,8.275-5.59" transform="translate(-486.523 -30.716)" fill="#fff"/>
      <path id="Path_40" data-name="Path 40" d="M520.777,41.65a44.229,44.229,0,0,1,5.011,4.008,69.889,69.889,0,0,0-9.905,3c-1.5-.908-3.021-1.763-4.579-2.558a70.408,70.408,0,0,1,9.3-4.386l.169-.063" transform="translate(-484.512 -31.803)" fill="#fff"/>
      <path id="Path_41" data-name="Path 41" d="M500.523,49.571a73.24,73.24,0,0,0-6.673,6.662q-1.732,1.954-3.318,4.031,1.264-2.107,2.661-4.115a74.119,74.119,0,0,1,5.368-6.858q.987.122,1.961.28" transform="translate(-490.533 -29.588)" fill="#fff"/>
      <path id="Path_42" data-name="Path 42" d="M508.539,43.947a71.22,71.22,0,0,0-8.362,5.931c-.715-.188-1.436-.36-2.159-.522a72.427,72.427,0,0,1,6.9-6.446q1.828.47,3.621,1.037" transform="translate(-488.363 -31.438)" fill="#fff"/>
      <path id="Path_43" data-name="Path 43" d="M512.643,37.773q2.527,1.047,4.965,2.283a70.218,70.218,0,0,0-9.7,4.666q-1.753-.728-3.543-1.358a70.836,70.836,0,0,1,8.275-5.59Z" transform="translate(-486.524 -32.927)" fill="#fff"/>
      <path id="Path_44" data-name="Path 44" d="M499.962,41.92a73.632,73.632,0,0,0-6.706,6.692h0c-.219-.034-.435-.061-.658-.084a74.507,74.507,0,0,1,5.4-6.888c.66.081,1.313.175,1.967.28" transform="translate(-489.935 -31.806)" fill="#fff"/>
      <path id="Path_45" data-name="Path 45" d="M504.918,35.285q1.828.47,3.621,1.037a71.222,71.222,0,0,0-8.362,5.931c-.715-.188-1.436-.36-2.159-.521a72.278,72.278,0,0,1,6.9-6.447" transform="translate(-488.363 -33.648)" fill="#fff"/>
      <path id="Path_46" data-name="Path 46" d="M497.992,34.016c.66.081,1.313.175,1.967.28a72.93,72.93,0,0,0-6.706,6.688h0c-.217-.03-.435-.057-.654-.08a73.636,73.636,0,0,1,5.4-6.888" transform="translate(-489.935 -34.016)" fill="#fff"/>
    </g>
    <path id="Path_47" data-name="Path 47" d="M498.185,120.369h-4.9v4.406H491.4v-9.792h1.888v3.707h4.9v-3.707h1.888v9.792h-1.888Z" transform="translate(0.251 23.472)" fill="#fff"/>
    <g id="Group_27" data-name="Group 27" transform="translate(501.794 141.463)">
      <path id="Path_48" data-name="Path 48" d="M505.838,117.315V124.1h-1.749v-.546a2.7,2.7,0,0,1-1.832.686,2.976,2.976,0,0,1-2.309-1.091,3.373,3.373,0,0,1-.685-2.239v-3.595h1.819v3.666a1.593,1.593,0,0,0,.335,1.161,1.364,1.364,0,0,0,1.022.419,2.093,2.093,0,0,0,1.58-.84v-4.406Z" transform="translate(-499.263 -117.315)" fill="#fff"/>
    </g>
    <path id="Path_49" data-name="Path 49" d="M511.017,118.434l-3.288,4.126H511.3V124.1h-6.016v-1.118l3.247-4.128h-2.967v-1.539h5.456Z" transform="translate(4.275 24.148)" fill="#fff"/>
    <g id="Group_28" data-name="Group 28" transform="translate(515.992 141.323)">
      <path id="Path_50" data-name="Path 50" d="M513.879,122.592a1.855,1.855,0,1,0-1.79-1.846,1.772,1.772,0,0,0,1.79,1.846m0-5.385a3.533,3.533,0,1,1-3.609,3.539,3.533,3.533,0,0,1,3.609-3.539" transform="translate(-510.27 -117.207)" fill="#fff"/>
      <path id="Path_51" data-name="Path 51" d="M519.908,122.592a1.855,1.855,0,1,0-1.79-1.846,1.772,1.772,0,0,0,1.79,1.846m0-5.385a3.533,3.533,0,1,1-3.609,3.539,3.533,3.533,0,0,1,3.609-3.539" transform="translate(-508.522 -117.207)" fill="#fff"/>
      <path id="Path_52" data-name="Path 52" d="M522.654,124.131v-6.785H524.4v.546a2.694,2.694,0,0,1,1.832-.685,2.956,2.956,0,0,1,2.281,1.063,3.368,3.368,0,0,1,2.407-1.063,3.094,3.094,0,0,1,2.377,1.09,3.366,3.366,0,0,1,.686,2.239v3.595h-1.819v-3.665a1.6,1.6,0,0,0-.335-1.162,1.366,1.366,0,0,0-1.022-.419,2.119,2.119,0,0,0-1.637.9,5.907,5.907,0,0,1,.055.756v3.595H527.41v-3.665a1.6,1.6,0,0,0-.335-1.162,1.364,1.364,0,0,0-1.022-.419,2.091,2.091,0,0,0-1.58.84v4.406Z" transform="translate(-506.68 -117.207)" fill="#fff"/>
    </g>
    <path id="Path_53" data-name="Path 53" d="M535.071,114.984h1.888V123.1h4.128v1.679h-6.016Z" transform="translate(12.911 23.472)" fill="#fff"/>
    <g id="Group_29" data-name="Group 29" transform="translate(554.557 137.896)">
      <path id="Path_54" data-name="Path 54" d="M546.742,117.315V124.1h-1.749v-.546a2.7,2.7,0,0,1-1.832.686,2.976,2.976,0,0,1-2.309-1.091,3.373,3.373,0,0,1-.685-2.239v-3.595h1.819v3.666a1.593,1.593,0,0,0,.336,1.161,1.365,1.365,0,0,0,1.021.419,2.093,2.093,0,0,0,1.58-.84v-4.406Z" transform="translate(-540.168 -113.748)" fill="#fff"/>
      <path id="Path_55" data-name="Path 55" d="M546.818,122.061a2.861,2.861,0,0,0,1.861.672c.489,0,.867-.239.867-.574,0-1.022-3.288-.658-3.288-2.84a2.361,2.361,0,0,1,2.6-2.112,4.208,4.208,0,0,1,2.295.685l-.852,1.316a2.288,2.288,0,0,0-1.3-.462c-.5,0-.924.195-.924.546,0,.881,3.288.531,3.288,2.882,0,1.3-1.273,2.1-2.7,2.1a4.7,4.7,0,0,1-2.728-.909Z" transform="translate(-538.496 -113.78)" fill="#fff"/>
      <path id="Path_56" data-name="Path 56" d="M555.824,119.725a2.084,2.084,0,0,0-1.678-.84,1.856,1.856,0,0,0,.041,3.707,1.985,1.985,0,0,0,1.637-.84Zm1.819,4.406h-1.749v-.546a2.831,2.831,0,0,1-1.888.685,3.409,3.409,0,0,1-2.559-1.147,3.636,3.636,0,0,1-.868-2.379,3.406,3.406,0,0,1,3.329-3.538,3.108,3.108,0,0,1,1.986.685v-.546h1.749Z" transform="translate(-537.15 -113.78)" fill="#fff"/>
      <path id="Path_57" data-name="Path 57" d="M559.129,124.9H557.31v-6.785h1.819Zm-.909-10.353a1.161,1.161,0,1,1-1.189,1.161,1.164,1.164,0,0,1,1.189-1.161" transform="translate(-535.28 -114.55)" fill="#fff"/>
    </g>
    <rect id="Rectangle_28" data-name="Rectangle 28" width="1.819" height="9.932" transform="translate(579.945 138.315)" fill="#fff"/>
    <g id="Group_30" data-name="Group 30" transform="translate(490.844 80.377)">
      <path id="Path_58" data-name="Path 58" d="M510.246,108.3a.6.6,0,0,1,.174.442v1.614a.661.661,0,0,1-.174.462.57.57,0,0,1-.445.192,6.347,6.347,0,0,1-4.641-1.922,6.788,6.788,0,0,1-2.668,2.96,7.939,7.939,0,0,1-4.139,1.037,7.083,7.083,0,0,1-4.04-1.153,7.377,7.377,0,0,1-2.63-3.133,10.416,10.416,0,0,1-.91-4.4,12.394,12.394,0,0,1,.31-2.825,13.434,13.434,0,0,1,1.044-2.826,2.447,2.447,0,0,1,2.167,1.192,7.356,7.356,0,0,0-1.045,3.805,7.851,7.851,0,0,0,1.237,4.441q1.238,1.863,4.254,1.864,3.906,0,5.415-4.191l-.89-16.414a3.157,3.157,0,0,1,2.475-1.307l.5,15.146a17.554,17.554,0,0,1-.155,2.768,3.885,3.885,0,0,0,1.624,1.633,4.787,4.787,0,0,0,2.088.442.606.606,0,0,1,.445.173" transform="translate(-490.774 -64.687)" fill="#fff"/>
      <path id="Path_59" data-name="Path 59" d="M512.229,113.743a4.782,4.782,0,0,1,.89-1.018,1.631,1.631,0,0,1,.966-.52,1.679,1.679,0,0,1,1.025.462,3.321,3.321,0,0,1,.871,1.076l-1.9,1.576Zm-3.751,0a4.777,4.777,0,0,1,.89-1.018,1.632,1.632,0,0,1,.966-.52,1.68,1.68,0,0,1,1.025.462,3.319,3.319,0,0,1,.869,1.076l-1.895,1.576Zm11.119-6.515a.6.6,0,0,1,.174.442v1.614a.661.661,0,0,1-.174.462.571.571,0,0,1-.445.192,6.943,6.943,0,0,1-3.056-.691,7.559,7.559,0,0,1-2.435-1.846,6.267,6.267,0,0,1-3.191,1.961,17.588,17.588,0,0,1-4.777.577.568.568,0,0,1-.444-.192.661.661,0,0,1-.174-.462v-1.614a.6.6,0,0,1,.174-.442.6.6,0,0,1,.444-.173q5.646,0,7.039-1.883.077-1.076.077-1.654a37.4,37.4,0,0,0-1.663-10.3,2.555,2.555,0,0,1,1-.98,2.766,2.766,0,0,1,1.393-.4,1.364,1.364,0,0,1,.387.039q.424,1.807.811,4.8a42.748,42.748,0,0,1,.387,5.42q0,.615-.077,1.615c-.026.307-.09.744-.194,1.307a4.133,4.133,0,0,0,1.837,1.654,6.8,6.8,0,0,0,2.456.384.606.606,0,0,1,.445.173" transform="translate(-486.628 -63.616)" fill="#fff"/>
      <path id="Path_60" data-name="Path 60" d="M548.033,96.047a46.584,46.584,0,0,1-.58,8.534A7.148,7.148,0,0,1,545.983,108a5.188,5.188,0,0,1-2.534,1.615,13.589,13.589,0,0,1-3.654.423,8.094,8.094,0,0,1-2.611-.519,7.493,7.493,0,0,1-2.65-1.6,4.778,4.778,0,0,1-2.475,1.672,13.568,13.568,0,0,1-3.751.442,8.2,8.2,0,0,1-2.533-.481,7.322,7.322,0,0,1-2.61-1.518,4.182,4.182,0,0,1-2.127,1.4,12.592,12.592,0,0,1-3.365.365h-1.547a.571.571,0,0,1-.445-.192.66.66,0,0,1-.174-.461v-1.615a.6.6,0,0,1,.174-.442.607.607,0,0,1,.445-.173h1.2a11.747,11.747,0,0,0,2.669-.289,5.424,5.424,0,0,0,1.934-.788,13.267,13.267,0,0,0,.426-3.92q0-2.192-.426-7.458a2.638,2.638,0,0,1,1.74-.691,3.076,3.076,0,0,1,1.432.384q.077,2.767.077,3.652a38.158,38.158,0,0,1-.194,4.248,26.5,26.5,0,0,1-.58,3.248l-.232.769a9.016,9.016,0,0,0,1.8.693,7.006,7.006,0,0,0,1.837.268,13.953,13.953,0,0,0,3.288-.365,6.442,6.442,0,0,0,2.243-.9,14.6,14.6,0,0,0,.425-4.19q0-2.575-.425-7.843a2.636,2.636,0,0,1,1.74-.693,3.087,3.087,0,0,1,1.431.384q.039,1.192.039,3.269a42.014,42.014,0,0,1-.579,7.88A12.344,12.344,0,0,1,535.58,106a8.222,8.222,0,0,0,1.837.749,6.964,6.964,0,0,0,1.875.288,13.933,13.933,0,0,0,3.287-.365,6.427,6.427,0,0,0,2.243-.9,16.31,16.31,0,0,0,.426-4.537q0-3-.426-8.264a2.64,2.64,0,0,1,1.741-.693,3.092,3.092,0,0,1,1.431.384q.039,1.192.039,3.383" transform="translate(-483.604 -63.487)" fill="#fff"/>
      <path id="Path_61" data-name="Path 61" d="M549.245,105a10.058,10.058,0,0,0,3.654,2.019q1.817-3.191,1.817-8.8a8.343,8.343,0,0,0-.792-4.113,2.688,2.688,0,0,0-2.495-1.345,4.023,4.023,0,0,0-3.423,2.077,13.4,13.4,0,0,0-1.643,6.42A13.647,13.647,0,0,0,549.245,105m10.558,2.787a.663.663,0,0,1,.174.46v1.576a.662.662,0,0,1-.174.462.571.571,0,0,1-.445.192h-1.585a17.281,17.281,0,0,1-4.022-.5,13.093,13.093,0,0,1-6.729,4.075,1.994,1.994,0,0,1-1.084-1.846,2.014,2.014,0,0,1,.039-.461,11.159,11.159,0,0,0,5.337-2.653,14.672,14.672,0,0,1-3.886-2.537,11.391,11.391,0,0,1-2.553-3.267,6.612,6.612,0,0,1-.793-3.306,12.885,12.885,0,0,1,.909-4.766,9.77,9.77,0,0,1,2.533-3.768,5.438,5.438,0,0,1,3.751-1.46,4.952,4.952,0,0,1,4.428,2.363,10.9,10.9,0,0,1,1.527,6.016,20,20,0,0,1-1.856,9.11q1.161.116,2.4.116h1.546a.622.622,0,0,1,.484.192" transform="translate(-475.322 -64.152)" fill="#fff"/>
      <path id="Path_62" data-name="Path 62" d="M555.617,110.826a.66.66,0,0,1-.174-.46V108.75a.6.6,0,0,1,.174-.442.607.607,0,0,1,.445-.173,6.462,6.462,0,0,0,2.8-.654,4.073,4.073,0,0,0,1.99-1.922l-.54-16.222a2.92,2.92,0,0,1,.985-.924,2.363,2.363,0,0,1,1.142-.307,2.187,2.187,0,0,1,.5.077v16.645a6.186,6.186,0,0,1-.7,2.671,6.316,6.316,0,0,1-2.243,2.48,6.946,6.946,0,0,1-3.945,1.037.571.571,0,0,1-.445-.192" transform="translate(-472.027 -64.696)" fill="#fff"/>
      <path id="Path_63" data-name="Path 63" d="M512.05,75.443c.384-.463.956-1.016,1.5-1.016a2.454,2.454,0,0,1,1.685.933,8.4,8.4,0,0,1,1.691,2.949,12.141,12.141,0,0,1,.686,4.126,12.723,12.723,0,0,1-.4,3.169,9.3,9.3,0,0,1-4.088-1.651,15.218,15.218,0,0,1-3.955-4.15c.1-.168.238-.392.419-.694a28.817,28.817,0,0,1,2.46-3.666m5.524-4.183a6.985,6.985,0,0,0-3.952-1.3,5.581,5.581,0,0,0-3.843,1.428,18.161,18.161,0,0,0-3.127,4.067,45.557,45.557,0,0,1-3.792,5.411,17.493,17.493,0,0,1-4.683,3.93,12.016,12.016,0,0,1-6.163,1.6h-.571l-.228.52a4.582,4.582,0,0,0-.44,1.842,3.526,3.526,0,0,0,.949,2.357l.29.33.441-.036a18.629,18.629,0,0,0,8.609-2.71,23.274,23.274,0,0,0,5.687-5.332,16.453,16.453,0,0,0,2.122,2.652,16.7,16.7,0,0,0,3.787,2.945,8.067,8.067,0,0,0,3.87,1.17,4.377,4.377,0,0,0,4.227-2.5,14.877,14.877,0,0,0,1.063-6.363,14.675,14.675,0,0,0-1.166-6.148,9.171,9.171,0,0,0-3.079-3.859" transform="translate(-490.774 -69.957)" fill="#fff"/>
      <path id="Path_64" data-name="Path 64" d="M526.547,78.709a24.782,24.782,0,0,1-1.3,5.162,10.879,10.879,0,0,1-4.818-4.126,9.577,9.577,0,0,1,1.986-4.324,2.862,2.862,0,0,1,2.617-.995c.58.089,2.122.328,1.513,4.282m3.582-5.78a5.753,5.753,0,0,0-4.57-2.883,6.493,6.493,0,0,0-4.222.706,8.3,8.3,0,0,0-3.092,3.043,11.993,11.993,0,0,0-1.565,4.4,6.174,6.174,0,0,0,.393,3.7,10.473,10.473,0,0,0,2.515,3.556,14.754,14.754,0,0,0,3.231,2.315,8.422,8.422,0,0,1-5.436,2.184l-.534.036-.209.5a2.643,2.643,0,0,0-.164.64,2.788,2.788,0,0,0,1.068,2.728l.281.224.357-.04a12,12,0,0,0,8.5-4.506,21.4,21.4,0,0,0,3.932-10.046C531.06,76.573,530.9,74.426,530.129,72.929Z" transform="translate(-483.334 -69.957)" fill="#fff"/>
      <path id="Path_65" data-name="Path 65" d="M538.833,73.076l-.214-.658a4.077,4.077,0,0,0-.842-1.458,2.411,2.411,0,0,0-1.415-.864,2.267,2.267,0,0,0-1.588.491,5.448,5.448,0,0,0-1.162,1.009l-.48.573,2.488,2.883Z" transform="translate(-478.495 -69.922)" fill="#fff"/>
      <path id="Path_66" data-name="Path 66" d="M543.379,80.213a16.632,16.632,0,0,1-5.691,11.271,20.038,20.038,0,0,1-2.054,1.59,17.774,17.774,0,0,1-8.414,2.713l-.431.036-.282-.335a3.639,3.639,0,0,1-.92-2.388,4.811,4.811,0,0,1,.436-1.863l.224-.525.557,0a11.413,11.413,0,0,0,6.024-1.593,17.242,17.242,0,0,0,4.586-3.96l.043-.052a14.593,14.593,0,0,0,2.164-4.993,10.781,10.781,0,0,0-.52-2.5c-.107-.347-.231-.709-.375-1.086v0a3.8,3.8,0,0,1,3.8-2.014h0q.228.7.405,1.381a13.021,13.021,0,0,1,.482,3.637s0,.248-.035.678" transform="translate(-480.682 -68.64)" fill="#fff"/>
      <path id="Path_67" data-name="Path 67" d="M559.562,82.831a8.555,8.555,0,0,1,4.084-1.179,4.679,4.679,0,0,1,.54.049c.712.356,1.291.626,1.763.82l.521.214.4-.405a3.747,3.747,0,0,0,1.047-2.584l.016-.5-.413-.267c-.57-.37-1.574-1.063-2.976-2.055a79.211,79.211,0,0,0-7.763-5.031,13.967,13.967,0,0,0-6.647-1.935,11.735,11.735,0,0,0-8.276,3.191l-.279.261V73.8a3.538,3.538,0,0,0,1.522,3.1l.525.356.485-.41c2.03-1.712,3.894-2.535,5.536-2.439a14.205,14.205,0,0,1,5.528,1.485,35.65,35.65,0,0,1,4.566,2.755,15.843,15.843,0,0,0-2.834,1.127s-9.445,4.884-17.7,3.038l-.973,4.073s8.04,3.221,21.322-4.05" transform="translate(-477.014 -69.957)" fill="#fff"/>
    </g>
  </g>
</svg>
