<svg id="logo_lusail" xmlns="http://www.w3.org/2000/svg" width="55.287" height="111.943" viewBox="0 0 55.287 111.943">
  <g id="Group_14" data-name="Group 14">
    <path id="Path_6" data-name="Path 6" d="M62.733,810.575a4.473,4.473,0,0,0-1.9.248,1.548,1.548,0,0,0-.845,1.527v11.412c-.058,1.058-.33,2.721-2.078,2.783-.224.007-.585.012-1.012.013.022-2.871.021-10.739.021-10.739s-1.34.009-2.506,0c-2.987-.022-6.438,1.737-6.481,5.73-.046,4.2,2.262,5.8,4.83,5.8h2.081a4.313,4.313,0,0,1-2.179,3.015,4.594,4.594,0,0,1-2.914.583v.524a8.974,8.974,0,0,0,3.628-.16c1.7-.454,3.451-2.285,3.509-3.962h1.976a1.65,1.65,0,0,1,.272.006c.033,0,.071,0,.123-.006,2.513-.125,2.964-2.295,2.979-4.015V811.59c0-.512.107-.635.548-.635h.134v-.38Zm-13,11c.043-3.071,2.676-5,4.3-5h.815s.055,8.485.059,9.975c-.662,0-1.256-.007-1.588-.007-1.891,0-3.629-1.913-3.585-4.973" transform="translate(-7.631 -719.641)" fill="#003e52"/>
    <path id="Path_7" data-name="Path 7" d="M55.514,821.878c-.245.013-.007.006,0,0" transform="translate(-4.01 -714.165)" fill="#003e52"/>
    <path id="Path_8" data-name="Path 8" d="M32.71,823.156a1.124,1.124,0,1,0,1.124,1.124,1.1,1.1,0,0,0-1.124-1.124" transform="translate(-15.548 -713.546)" fill="#003e52"/>
    <path id="Path_9" data-name="Path 9" d="M34.909,823.156a1.124,1.124,0,1,0,1.124,1.124,1.1,1.1,0,0,0-1.124-1.124" transform="translate(-14.483 -713.546)" fill="#003e52"/>
    <path id="Path_10" data-name="Path 10" d="M57.665,816.091a1.547,1.547,0,0,0-.845,1.526v6.238c-.043,1.057-.178,2.675-1.9,2.742l-.435,0c-1.833-.01-1.553-1.33-1.6-2.815.006-.134.01-.266.01-.395v-4.6c0-.511.108-.635.548-.635h.135v-.379H53.4a4.469,4.469,0,0,0-1.9.248,1.543,1.543,0,0,0-.845,1.526v4.314c-.043,1.057-.178,2.675-1.894,2.742l-.436,0c-1.752-.01-1.574-1.214-1.591-2.616.013-.2.019-.4.021-.594v-3.554c0-.511.108-.635.548-.635h.134v-.379h-.183a4.455,4.455,0,0,0-1.9.248,1.546,1.546,0,0,0-.845,1.526v3.264c-.042,1.057-.177,2.675-1.894,2.742l-.435,0c-1.835-.01-1.553-1.33-1.6-2.815.006-.134.009-.266.01-.395v-6.526c0-.511.107-.637.548-.637h.134v-.378h-.184a4.476,4.476,0,0,0-1.9.248,1.547,1.547,0,0,0-.845,1.526v6.238c-.043,1.057-.177,2.675-1.894,2.742l-.436,0c-1.48-.009-1.582-.87-1.588-1.982.013-.331.013-.646,0-.937v-12.07c0-.511.107-.637.546-.637h.135v-.377h-.184a4.474,4.474,0,0,0-1.9.246,1.729,1.729,0,0,0-.845,1.757v12.072h0c-.007.463-.025,1.047-.07,1.529a4.118,4.118,0,0,1-4.444,4.11c-3.934,0-4.62-4.066-4.633-6.426h0v-3.944c0-.511.108-.635.548-.635h.135v-.379h-.184a4.493,4.493,0,0,0-1.9.246,1.729,1.729,0,0,0-.845,1.758v2.924s-.344,7.256,6.824,7.431c4.292.1,5.95-2.243,6.536-4.618a2.1,2.1,0,0,0,1.519.735c.338,0,1.924,0,2.037-.007a2.593,2.593,0,0,0,2.3-1.247,2.057,2.057,0,0,0,1.827,1.254c.338,0,1.924,0,2.037-.007a2.594,2.594,0,0,0,2.291-1.234,2.06,2.06,0,0,0,1.821,1.241c.338,0,1.924,0,2.037-.007a2.6,2.6,0,0,0,2.3-1.247,2.055,2.055,0,0,0,1.826,1.254c.34,0,1.925,0,2.037-.007,2.516-.1,2.878-2.288,2.892-4.007v-6.526c0-.511.108-.637.549-.637h.134v-.378h-.184a4.469,4.469,0,0,0-1.9.248" transform="translate(-20.782 -719.633)" fill="#003e52"/>
    <path id="Path_11" data-name="Path 11" d="M36.957,763.159c.448.346.944.689,1.468,1.052,1.511,1.047,3.226,2.234,4.036,3.723l.191.361.083.148.079-.148.191-.361c.813-1.489,2.525-2.677,4.039-3.726.523-.362,1.017-.705,1.465-1.05,2.383-1.838,3.619-3.223,4.2-6.119a14.911,14.911,0,0,0,.141-2.3V752.9l-.183-.019-.365,1.8c-.549,2.725-2.013,3.825-4.038,5.347-.281.211-.572.43-.873.662a12.7,12.7,0,0,0-4.661,5.95,12.693,12.693,0,0,0-4.663-5.95c-.3-.23-.588-.448-.871-.662-2.026-1.522-3.488-2.622-4.039-5.347l-.365-1.8-.183.019v1.839a15.163,15.163,0,0,0,.14,2.3c.585,2.9,1.821,4.281,4.2,6.119" transform="translate(-15.05 -747.592)" fill="#003e52"/>
    <path id="Path_12" data-name="Path 12" d="M36.185,767.235c.592.426,1.247.848,1.94,1.294,2.014,1.3,4.3,2.77,5.38,4.626l.194.34.08.129.079-.129.194-.34c1.081-1.856,3.365-3.328,5.38-4.627.692-.447,1.346-.867,1.939-1.293a12.534,12.534,0,0,0,5.558-8.126,11.038,11.038,0,0,0,.171-2.219v-1.714l-.181-.021-.365,1.676c-.788,3.637-2.745,5-5.7,7.065l-.551.383c-2.424,1.7-5.533,4.7-6.52,7.645-.984-2.951-4.1-5.942-6.52-7.645l-.554-.386c-2.959-2.062-4.912-3.425-5.7-7.062l-.364-1.674-.183.019v1.714a10.95,10.95,0,0,0,.172,2.219,12.529,12.529,0,0,0,5.556,8.126" transform="translate(-16.095 -746.489)" fill="#003e52"/>
    <path id="Path_13" data-name="Path 13" d="M39.821,758.472l.171.42h.171l.171-.42a7.429,7.429,0,0,1,.865-1.51,3.514,3.514,0,0,0,.855-2.236,8.341,8.341,0,0,0-1-3.214,17.464,17.464,0,0,1-.711-1.682l-.174-.514H39.99l-.175.514a17.04,17.04,0,0,1-.71,1.682,8.354,8.354,0,0,0-1.006,3.223,3.516,3.516,0,0,0,.855,2.227,7.358,7.358,0,0,1,.867,1.51" transform="translate(-12.393 -749.317)" fill="#003e52"/>
    <path id="Path_14" data-name="Path 14" d="M37.642,759.4c.344.377.732.739,1.146,1.124a8.112,8.112,0,0,1,2.406,3.067l.275.88.273-.88a8.106,8.106,0,0,1,2.409-3.067c.41-.385.8-.745,1.143-1.124l.148-.162c1.413-1.545,2.265-2.479,2.265-4.912a14.633,14.633,0,0,0-.194-1.833l-.24-1.434-.183.007-.125,1.449c-.154,1.781-.929,2.584-2.1,3.8-.263.273-.536.555-.83.877a10.688,10.688,0,0,0-2.564,4.554,10.7,10.7,0,0,0-2.564-4.554c-.294-.321-.567-.6-.833-.879-1.173-1.213-1.948-2.014-2.1-3.8l-.126-1.461-.183-.007-.238,1.446a14.585,14.585,0,0,0-.2,1.833c0,2.433.854,3.367,2.267,4.914Z" transform="translate(-13.784 -748.477)" fill="#003e52"/>
    <path id="Path_15" data-name="Path 15" d="M35.743,771.913c.674.5,1.418,1,2.2,1.521,2.3,1.536,4.912,3.279,6.147,5.479l.191.35.082.166.08-.166.193-.349c1.235-2.2,3.845-3.944,6.15-5.484.787-.524,1.529-1.02,2.2-1.519A14.747,14.747,0,0,0,59.3,762.37a13.3,13.3,0,0,0,.193-2.6V758l-.183-.019-.364,1.737c-.9,4.3-3.134,5.913-6.512,8.349l-.628.454c-2.8,2.031-6.364,5.595-7.439,9.092-1.075-3.5-4.645-7.062-7.442-9.092-.214-.156-.423-.306-.628-.454-3.377-2.436-5.608-4.047-6.511-8.349l-.364-1.738-.181.019v1.776a13.315,13.315,0,0,0,.193,2.6,14.736,14.736,0,0,0,6.307,9.542" transform="translate(-16.683 -745.123)" fill="#003e52"/>
    <path id="Path_16" data-name="Path 16" d="M56.453,790.675h0l.338,1.706a10.8,10.8,0,0,1,.163,1.948c0,4.339-4.223,7.9-7.306,10.5l-.514.433c-.3.251-.6.5-.919.762l.1-.1c2.338-2.5,4.833-5.322,4.833-9.367a10.5,10.5,0,0,0-.5-3.714v0s1.109,3.836-5.279,10.223c-.552.552-1.063,1.084-1.542,1.612-3.071,3.39-5.5,6.068-5.5,12.026v.971l.178.033.355-.9c1.188-3.019,4.369-5.354,7.179-7.418.911-.669,1.774-1.3,2.541-1.936l.313-.257c3.321-2.731,7.453-6.129,7.453-10.724a10.26,10.26,0,0,0-1.027-4.244,8.681,8.681,0,0,0-.864-1.547" transform="translate(-11.315 -729.281)" fill="#003e52"/>
    <path id="Path_17" data-name="Path 17" d="M67.055,785.014l-.181.013a16.63,16.63,0,0,1-.865,4.158c-1.409,3.977-4.623,7.542-7.461,10.691l-.058.065c-.573.635-1.116,1.238-1.642,1.839a24.548,24.548,0,0,0-2.274-5.084c.14-.138.53-.517.716-.7q.724-.7,1.484-1.424c4.318-4.115,9.214-8.781,10.078-14.9.019-.144.043-.292.067-.448a19.072,19.072,0,0,0,.266-3.16c-.006-.91-.025-1.21-.043-1.5-.009-.126-.016-.252-.024-.429l-.183-.01-.3,1.872c-1.136,5.752-6.071,10.351-10.427,14.41-1,.935-1.954,1.818-2.847,2.7-.239.237-.479.476-.718.715a41.425,41.425,0,0,0-3.781-4.293c1-.827,2-1.646,2.984-2.443l.166-.135c.582-.474,1.18-.953,1.789-1.438,5.172-4.134,11.035-8.819,12.581-15.5a18.342,18.342,0,0,0,.322-3.677v-1.51l-.181-.022-.362,1.467c-1.535,6.208-7.384,10.746-12.544,14.751-1.207.935-2.345,1.82-3.417,2.711-1.17.974-2.546,2.133-3.913,3.361-1.358-1.219-2.74-2.383-3.914-3.361-1.075-.892-2.213-1.777-3.419-2.712-5.16-4-11.006-8.543-12.541-14.75l-.362-1.468-.183.022v1.511a18.364,18.364,0,0,0,.324,3.677c1.545,6.679,7.407,11.364,12.579,15.5.607.485,1.207.965,1.789,1.438l.218.178c.96.779,1.951,1.586,2.932,2.4a41.226,41.226,0,0,0-3.781,4.295c-.239-.24-.479-.479-.718-.717-.892-.885-1.841-1.77-2.849-2.708-4.355-4.057-9.291-8.654-10.425-14.406l-.365-1.847-.183.012a19.9,19.9,0,0,0,.013,2.083c.061,1.208.163,2.3.322,3.427.862,6.122,5.758,10.788,10.078,14.9q.757.721,1.483,1.422l.717.7a24.424,24.424,0,0,0-2.276,5.084c-.523-.6-1.064-1.2-1.645-1.842l-.07-.077c-2.8-3.1-5.965-6.619-7.393-10.531a13.984,13.984,0,0,1-.969-4.3l-.18-.03a15.284,15.284,0,0,0-.135,4.5c.294,5.565,4.321,10.136,7.882,14.175l.015.018q.612.695,1.2,1.369l.258.3a73.539,73.539,0,0,1,6.655,8.5l0,0,.028.046c.07.108.137.217.2.325,2.483,4.029,3.762,7.312,3.9,10.338l.053.086.045-.092c0-.562.052-2.509-.01-3.9a20.969,20.969,0,0,0-2.636-9.031,27.351,27.351,0,0,1,3.358-5.9,27.324,27.324,0,0,1,3.356,5.9,20.989,20.989,0,0,0-2.636,9.031c-.049,1.116-.01,2.749-.01,3.9l.042.094.052-.089c.138-3.057,1.381-6.245,3.9-10.335l.235-.376a73.826,73.826,0,0,1,6.668-8.516l.248-.285c.392-.453.8-.911,1.205-1.378l.073-.082c3.539-4.015,7.548-8.565,7.817-14.1a19.716,19.716,0,0,0-.184-4.483m-16.436,10.9a51.161,51.161,0,0,0-4.33,5.133,51.549,51.549,0,0,0-4.33-5.133c1.234-1.329,2.651-2.7,4.33-4.179,1.677,1.481,3.1,2.85,4.33,4.179m5.136,7.145a58.4,58.4,0,0,0-5.127,6.864,23.487,23.487,0,0,0-2.66-6.331c1.617-1.934,3.336-3.681,4.814-5.145a28.419,28.419,0,0,1,2.973,4.612m-11.147.533a23.509,23.509,0,0,0-2.662,6.333,58.507,58.507,0,0,0-5.126-6.866,28.965,28.965,0,0,1,2.973-4.612c1.476,1.459,3.19,3.2,4.814,5.145" transform="translate(-18.603 -741.811)" fill="#003e52"/>
    <path id="Path_18" data-name="Path 18" d="M35.862,776.127c.552.4,1.139.8,1.761,1.226,2.194,1.492,4.679,3.184,5.917,5.4a8.212,8.212,0,0,1,.91,2.411,8.841,8.841,0,0,1,.91-2.408c1.186-2.184,3.655-3.863,5.832-5.346l.083-.056c.621-.423,1.207-.821,1.761-1.226,3.478-2.534,5.8-4.917,6.633-8.959a13.787,13.787,0,0,0,.145-2.665l-.077-1.434-.183-.013-.286,1.406c-.741,3.63-2.957,5.12-5.766,7.01-.554.371-1.127.757-1.72,1.179-2.96,2.109-6.483,5.968-7.22,9.452-.039.184-.074.383-.111.6-.036-.217-.071-.416-.108-.6-.741-3.483-4.263-7.341-7.223-9.45-.6-.425-1.17-.809-1.722-1.182-2.807-1.887-5.023-3.377-5.763-7.007l-.287-1.4-.181.013-.079,1.427a13.691,13.691,0,0,0,.144,2.668c.831,4.039,3.153,6.422,6.631,8.957" transform="translate(-16.765 -742.661)" fill="#003e52"/>
    <path id="Path_19" data-name="Path 19" d="M37.378,803.06C31.014,796.7,32.1,792.818,32.1,792.818h0a9.69,9.69,0,0,0-.5,3.735c0,4.045,2.5,6.872,4.838,9.37.033.034.065.068.1.1-.318-.26-.626-.512-.923-.765l-.517-.436c-3.082-2.6-7.3-6.157-7.3-10.5a10.8,10.8,0,0,1,.162-1.948l.376-1.7s-.462.712-.9,1.544a10.22,10.22,0,0,0-1.027,4.244c0,4.593,4.133,7.992,7.452,10.722l.315.26c.766.631,1.627,1.263,2.543,1.936,2.807,2.06,5.99,4.4,7.177,7.416l.355.9.178-.033V816.7c0-5.957-2.426-8.635-5.5-12.026-.479-.528-.99-1.06-1.542-1.612" transform="translate(-18.061 -729.28)" fill="#003e52"/>
  </g>
</svg>
