<svg id="logo_huzoom" xmlns="http://www.w3.org/2000/svg" width="68.302" height="85.628" viewBox="0 0 68.302 85.628">
  <g id="Group_26" data-name="Group 26">
    <path id="Path_36" data-name="Path 36" d="M510.075,53.03q1.895.779,3.725,1.7a52.435,52.435,0,0,0-7.255,3.493,54.636,54.636,0,0,0-16.012,14.135A55.6,55.6,0,0,1,503.89,57.211a53.246,53.246,0,0,1,6.185-4.181" transform="translate(-490.533 -34.668)" fill="#d0b59c"/>
    <path id="Path_37" data-name="Path 37" d="M524.507,47.288a28.843,28.843,0,0,1,2.91,4.014q-.579.067-1.159.151-1.885.269-3.722.666a52.9,52.9,0,0,0-7.8,2.333c-1.122-.68-2.262-1.317-3.428-1.915a52.377,52.377,0,0,1,6.965-3.281,52.94,52.94,0,0,1,6.238-1.968" transform="translate(-491.245 -34.471)" fill="#d0b59c"/>
    <path id="Path_38" data-name="Path 38" d="M502.9,50.555q1.369.348,2.713.775a52.594,52.594,0,0,0-6.24,4.425h0a55.28,55.28,0,0,0-8.84,9.161,56.294,56.294,0,0,1,7.226-9.552h0a54.508,54.508,0,0,1,5.141-4.808" transform="translate(-490.533 -34.583)" fill="#d0b59c"/>
    <path id="Path_39" data-name="Path 39" d="M510.562,45.4q1.892.782,3.719,1.709a52.382,52.382,0,0,0-7.259,3.495q-1.312-.545-2.655-1.019a53.305,53.305,0,0,1,6.2-4.185" transform="translate(-491.007 -34.406)" fill="#d0b59c"/>
    <path id="Path_40" data-name="Path 40" d="M518.4,41.65a33.114,33.114,0,0,1,3.752,3,52.324,52.324,0,0,0-7.416,2.245c-1.122-.68-2.262-1.32-3.428-1.915A52.713,52.713,0,0,1,518.27,41.7l.126-.047" transform="translate(-491.245 -34.278)" fill="#d0b59c"/>
    <path id="Path_41" data-name="Path 41" d="M498.013,49.5a54.836,54.836,0,0,0-5,4.988q-1.3,1.463-2.484,3.018.946-1.577,1.992-3.081a55.5,55.5,0,0,1,4.019-5.135q.739.091,1.468.21" transform="translate(-490.533 -34.54)" fill="#d0b59c"/>
    <path id="Path_42" data-name="Path 42" d="M505.894,43.686a53.321,53.321,0,0,0-6.261,4.44c-.535-.141-1.075-.269-1.617-.391a54.227,54.227,0,0,1,5.167-4.826q1.369.352,2.711.776" transform="translate(-490.79 -34.321)" fill="#d0b59c"/>
    <path id="Path_43" data-name="Path 43" d="M510.562,37.773q1.892.784,3.717,1.709a52.569,52.569,0,0,0-7.262,3.493q-1.312-.545-2.653-1.017a53.03,53.03,0,0,1,6.2-4.185Z" transform="translate(-491.007 -34.145)" fill="#d0b59c"/>
    <path id="Path_44" data-name="Path 44" d="M498.11,41.85a55.131,55.131,0,0,0-5.021,5.01h0c-.164-.025-.325-.045-.493-.063a55.787,55.787,0,0,1,4.042-5.157c.494.061.983.131,1.473.21" transform="translate(-490.604 -34.277)" fill="#d0b59c"/>
    <path id="Path_45" data-name="Path 45" d="M503.184,35.285q1.369.352,2.711.776a53.322,53.322,0,0,0-6.261,4.44c-.535-.141-1.075-.269-1.617-.39a54.116,54.116,0,0,1,5.167-4.827" transform="translate(-490.79 -34.06)" fill="#d0b59c"/>
    <path id="Path_46" data-name="Path 46" d="M496.636,34.016c.494.061.983.131,1.473.21a54.6,54.6,0,0,0-5.021,5.007h0c-.162-.022-.325-.042-.49-.06a55.135,55.135,0,0,1,4.04-5.157" transform="translate(-490.604 -34.016)" fill="#d0b59c"/>
  </g>
  <path id="Path_47" data-name="Path 47" d="M496.48,119.016h-3.666v3.3H491.4v-7.331h1.414v2.775h3.666v-2.775h1.414v7.331H496.48Z" transform="translate(-490.563 -36.792)" fill="#13679a"/>
  <g id="Group_27" data-name="Group 27" transform="translate(8.431 80.443)">
    <path id="Path_48" data-name="Path 48" d="M504.185,117.315v5.08h-1.31v-.409a2.018,2.018,0,0,1-1.371.514,2.228,2.228,0,0,1-1.729-.817,2.526,2.526,0,0,1-.513-1.676v-2.691h1.362v2.745a1.193,1.193,0,0,0,.251.869,1.021,1.021,0,0,0,.765.314,1.567,1.567,0,0,0,1.183-.629v-3.3Z" transform="translate(-499.263 -117.315)" fill="#13679a"/>
  </g>
  <path id="Path_49" data-name="Path 49" d="M509.575,118.153l-2.462,3.089h2.671v1.152h-4.5v-.837l2.431-3.09H505.49v-1.152h4.085Z" transform="translate(-491.039 -36.872)" fill="#13679a"/>
  <g id="Group_28" data-name="Group 28" transform="translate(19.06 80.339)">
    <path id="Path_50" data-name="Path 50" d="M512.972,121.239a1.389,1.389,0,1,0-1.34-1.382,1.326,1.326,0,0,0,1.34,1.382m0-4.032a2.645,2.645,0,1,1-2.7,2.65,2.645,2.645,0,0,1,2.7-2.65" transform="translate(-510.27 -117.207)" fill="#13679a"/>
    <path id="Path_51" data-name="Path 51" d="M519,121.239a1.389,1.389,0,1,0-1.34-1.382,1.326,1.326,0,0,0,1.34,1.382m0-4.032a2.645,2.645,0,1,1-2.7,2.65,2.645,2.645,0,0,1,2.7-2.65" transform="translate(-510.477 -117.207)" fill="#13679a"/>
    <path id="Path_52" data-name="Path 52" d="M522.654,122.391v-5.08h1.31v.408a2.017,2.017,0,0,1,1.371-.513,2.213,2.213,0,0,1,1.707.8,2.521,2.521,0,0,1,1.8-.8,2.317,2.317,0,0,1,1.78.816,2.52,2.52,0,0,1,.514,1.676v2.691h-1.362v-2.744a1.2,1.2,0,0,0-.251-.87,1.023,1.023,0,0,0-.765-.314,1.586,1.586,0,0,0-1.225.67,4.424,4.424,0,0,1,.041.566v2.691h-1.362v-2.744a1.194,1.194,0,0,0-.251-.87,1.021,1.021,0,0,0-.765-.314,1.566,1.566,0,0,0-1.183.629v3.3Z" transform="translate(-510.695 -117.207)" fill="#13679a"/>
  </g>
  <path id="Path_53" data-name="Path 53" d="M535.071,114.984h1.414v6.074h3.09v1.257h-4.5Z" transform="translate(-492.06 -36.792)" fill="#13679a"/>
  <g id="Group_29" data-name="Group 29" transform="translate(47.933 77.773)">
    <path id="Path_54" data-name="Path 54" d="M545.09,117.315v5.08h-1.309v-.409a2.018,2.018,0,0,1-1.371.514,2.228,2.228,0,0,1-1.729-.817,2.525,2.525,0,0,1-.513-1.676v-2.691h1.362v2.745a1.192,1.192,0,0,0,.251.869,1.022,1.022,0,0,0,.765.314,1.566,1.566,0,0,0,1.183-.629v-3.3Z" transform="translate(-540.168 -114.645)" fill="#13679a"/>
    <path id="Path_55" data-name="Path 55" d="M546.6,120.841a2.142,2.142,0,0,0,1.394.5c.366,0,.649-.179.649-.43,0-.765-2.462-.493-2.462-2.126a1.768,1.768,0,0,1,1.948-1.581,3.151,3.151,0,0,1,1.718.513l-.638.985a1.713,1.713,0,0,0-.974-.346c-.377,0-.692.146-.692.408,0,.66,2.462.4,2.462,2.157,0,.973-.953,1.571-2.021,1.571a3.516,3.516,0,0,1-2.042-.681Z" transform="translate(-540.366 -114.641)" fill="#13679a"/>
    <path id="Path_56" data-name="Path 56" d="M554.506,119.092a1.56,1.56,0,0,0-1.256-.629,1.389,1.389,0,0,0,.031,2.775,1.486,1.486,0,0,0,1.226-.629Zm1.362,3.3h-1.31v-.409a2.12,2.12,0,0,1-1.414.513,2.552,2.552,0,0,1-1.916-.859,2.722,2.722,0,0,1-.65-1.781,2.55,2.55,0,0,1,2.492-2.649,2.327,2.327,0,0,1,1.487.513v-.408h1.31Z" transform="translate(-540.525 -114.641)" fill="#13679a"/>
    <path id="Path_57" data-name="Path 57" d="M558.6,122.3H557.24v-5.08H558.6Zm-.681-7.751a.869.869,0,1,1-.89.869.872.872,0,0,1,.89-.869" transform="translate(-540.746 -114.55)" fill="#13679a"/>
  </g>
  <rect id="Rectangle_28" data-name="Rectangle 28" width="1.362" height="7.436" transform="translate(66.94 78.087)" fill="#13679a"/>
  <g id="Group_30" data-name="Group 30" transform="translate(0.233 34.709)">
    <path id="Path_58" data-name="Path 58" d="M505.352,103.232a.447.447,0,0,1,.13.331v1.208a.5.5,0,0,1-.13.346.427.427,0,0,1-.333.144,4.752,4.752,0,0,1-3.475-1.439,5.082,5.082,0,0,1-2,2.216,5.944,5.944,0,0,1-3.1.776,5.3,5.3,0,0,1-3.025-.863,5.523,5.523,0,0,1-1.969-2.346,7.8,7.8,0,0,1-.681-3.3,9.28,9.28,0,0,1,.232-2.115,10.059,10.059,0,0,1,.781-2.116,1.832,1.832,0,0,1,1.622.892,5.507,5.507,0,0,0-.782,2.849,5.878,5.878,0,0,0,.926,3.325,3.537,3.537,0,0,0,3.185,1.4q2.925,0,4.054-3.138l-.666-12.289a2.363,2.363,0,0,1,1.853-.978l.377,11.339a13.14,13.14,0,0,1-.116,2.072,2.908,2.908,0,0,0,1.216,1.223,3.584,3.584,0,0,0,1.563.331.454.454,0,0,1,.333.129" transform="translate(-490.774 -70.581)" fill="#13679a"/>
    <path id="Path_59" data-name="Path 59" d="M510.431,108.237a3.579,3.579,0,0,1,.666-.762,1.221,1.221,0,0,1,.723-.389,1.257,1.257,0,0,1,.768.346,2.487,2.487,0,0,1,.652.805l-1.42,1.18Zm-2.808,0a3.577,3.577,0,0,1,.666-.762,1.221,1.221,0,0,1,.723-.389,1.257,1.257,0,0,1,.768.346,2.485,2.485,0,0,1,.651.805l-1.419,1.18Zm8.324-4.878a.446.446,0,0,1,.13.331V104.9a.5.5,0,0,1-.13.346.427.427,0,0,1-.333.144,5.2,5.2,0,0,1-2.288-.518,5.659,5.659,0,0,1-1.823-1.382,4.692,4.692,0,0,1-2.389,1.468,13.168,13.168,0,0,1-3.576.432.425.425,0,0,1-.332-.144.5.5,0,0,1-.13-.346V103.69a.447.447,0,0,1,.13-.331.452.452,0,0,1,.332-.129q4.227,0,5.27-1.41.058-.805.058-1.238a28,28,0,0,0-1.245-7.713,1.913,1.913,0,0,1,.752-.734,2.071,2.071,0,0,1,1.043-.3,1.022,1.022,0,0,1,.29.029q.317,1.353.607,3.6a32.007,32.007,0,0,1,.29,4.058q0,.461-.058,1.209c-.019.23-.068.557-.145.978a3.1,3.1,0,0,0,1.375,1.238,5.089,5.089,0,0,0,1.839.288.454.454,0,0,1,.333.129" transform="translate(-491.264 -70.707)" fill="#13679a"/>
    <path id="Path_60" data-name="Path 60" d="M539.858,95.1a34.879,34.879,0,0,1-.435,6.389,5.352,5.352,0,0,1-1.1,2.561,3.884,3.884,0,0,1-1.9,1.209,10.174,10.174,0,0,1-2.736.317,6.06,6.06,0,0,1-1.955-.388,5.61,5.61,0,0,1-1.984-1.195,3.577,3.577,0,0,1-1.853,1.252,10.158,10.158,0,0,1-2.808.331,6.14,6.14,0,0,1-1.9-.36,5.482,5.482,0,0,1-1.954-1.137,3.131,3.131,0,0,1-1.592,1.051,9.427,9.427,0,0,1-2.52.273h-1.158a.427.427,0,0,1-.333-.144.494.494,0,0,1-.13-.345v-1.209a.446.446,0,0,1,.13-.331.454.454,0,0,1,.333-.129h.9a8.8,8.8,0,0,0,2-.216,4.061,4.061,0,0,0,1.448-.59,9.933,9.933,0,0,0,.319-2.935q0-1.641-.319-5.584a1.975,1.975,0,0,1,1.3-.518,2.3,2.3,0,0,1,1.072.288q.058,2.071.058,2.734a28.564,28.564,0,0,1-.145,3.18,19.834,19.834,0,0,1-.435,2.432l-.174.576a6.75,6.75,0,0,0,1.346.519,5.246,5.246,0,0,0,1.375.2,10.446,10.446,0,0,0,2.462-.273,4.823,4.823,0,0,0,1.679-.676,10.934,10.934,0,0,0,.318-3.137q0-1.928-.318-5.872a1.973,1.973,0,0,1,1.3-.519,2.311,2.311,0,0,1,1.071.288q.029.892.029,2.447a31.456,31.456,0,0,1-.434,5.9,9.242,9.242,0,0,1-.29,1.065,6.156,6.156,0,0,0,1.375.561,5.214,5.214,0,0,0,1.4.215,10.431,10.431,0,0,0,2.461-.273,4.811,4.811,0,0,0,1.679-.676,12.211,12.211,0,0,0,.319-3.4q0-2.244-.319-6.187a1.977,1.977,0,0,1,1.3-.519,2.315,2.315,0,0,1,1.071.288q.029.892.029,2.533" transform="translate(-491.622 -70.723)" fill="#13679a"/>
    <path id="Path_61" data-name="Path 61" d="M547.946,101.223a7.529,7.529,0,0,0,2.736,1.511,13.383,13.383,0,0,0,1.361-6.591,6.246,6.246,0,0,0-.593-3.08,2.013,2.013,0,0,0-1.868-1.007,3.012,3.012,0,0,0-2.563,1.555,10.034,10.034,0,0,0-1.23,4.806,10.217,10.217,0,0,0,2.157,2.805m7.9,2.087a.5.5,0,0,1,.13.345v1.18a.5.5,0,0,1-.13.346.428.428,0,0,1-.333.144H554.33a12.938,12.938,0,0,1-3.011-.374A9.8,9.8,0,0,1,546.281,108a1.493,1.493,0,0,1-.811-1.382,1.509,1.509,0,0,1,.029-.345,8.355,8.355,0,0,0,4-1.986,10.985,10.985,0,0,1-2.91-1.9,8.529,8.529,0,0,1-1.911-2.446,4.951,4.951,0,0,1-.594-2.475,9.646,9.646,0,0,1,.681-3.568,7.314,7.314,0,0,1,1.9-2.821,4.071,4.071,0,0,1,2.808-1.093,3.708,3.708,0,0,1,3.315,1.769,8.159,8.159,0,0,1,1.143,4.5,14.97,14.97,0,0,1-1.39,6.821q.869.087,1.8.087h1.158a.465.465,0,0,1,.362.144" transform="translate(-492.602 -70.644)" fill="#13679a"/>
    <path id="Path_62" data-name="Path 62" d="M555.573,105.116a.494.494,0,0,1-.13-.345v-1.209a.447.447,0,0,1,.13-.331.454.454,0,0,1,.333-.129,4.838,4.838,0,0,0,2.1-.49,3.05,3.05,0,0,0,1.49-1.439l-.4-12.145a2.187,2.187,0,0,1,.738-.691,1.769,1.769,0,0,1,.855-.23,1.638,1.638,0,0,1,.377.058v12.462a4.631,4.631,0,0,1-.522,2,4.729,4.729,0,0,1-1.679,1.857,5.2,5.2,0,0,1-2.953.776.427.427,0,0,1-.333-.144" transform="translate(-492.991 -70.58)" fill="#13679a"/>
    <path id="Path_63" data-name="Path 63" d="M506.7,74.064c.288-.347.716-.761,1.121-.761a1.837,1.837,0,0,1,1.261.7,6.285,6.285,0,0,1,1.266,2.208,9.09,9.09,0,0,1,.514,3.089,9.525,9.525,0,0,1-.3,2.373,6.959,6.959,0,0,1-3.06-1.236,11.394,11.394,0,0,1-2.961-3.107c.077-.126.179-.294.314-.52a21.575,21.575,0,0,1,1.842-2.745m4.136-3.132a5.23,5.23,0,0,0-2.959-.974A4.179,4.179,0,0,0,505,71.027a13.6,13.6,0,0,0-2.341,3.045,34.108,34.108,0,0,1-2.839,4.051,13.1,13.1,0,0,1-3.506,2.943A9,9,0,0,1,491.7,82.26h-.428l-.171.389a3.43,3.43,0,0,0-.329,1.379,2.64,2.64,0,0,0,.711,1.764l.217.247.33-.027a13.947,13.947,0,0,0,6.445-2.029,17.425,17.425,0,0,0,4.258-3.992,12.318,12.318,0,0,0,1.589,1.986,12.5,12.5,0,0,0,2.835,2.2,6.039,6.039,0,0,0,2.9.876,3.277,3.277,0,0,0,3.165-1.87,11.139,11.139,0,0,0,.8-4.764,10.986,10.986,0,0,0-.873-4.6,6.866,6.866,0,0,0-2.305-2.889" transform="translate(-490.774 -69.958)" fill="#13679a"/>
    <path id="Path_64" data-name="Path 64" d="M524.006,76.509a18.554,18.554,0,0,1-.972,3.865,8.145,8.145,0,0,1-3.607-3.089,7.17,7.17,0,0,1,1.487-3.237,2.143,2.143,0,0,1,1.959-.745c.434.067,1.589.245,1.133,3.206m2.682-4.327a4.307,4.307,0,0,0-3.422-2.158,4.861,4.861,0,0,0-3.161.528,6.217,6.217,0,0,0-2.315,2.278,8.978,8.978,0,0,0-1.171,3.3,4.622,4.622,0,0,0,.294,2.774,7.841,7.841,0,0,0,1.883,2.662,11.045,11.045,0,0,0,2.419,1.733,6.306,6.306,0,0,1-4.07,1.635l-.4.027-.156.371a1.979,1.979,0,0,0-.123.479,2.087,2.087,0,0,0,.8,2.042l.211.168.267-.03a8.981,8.981,0,0,0,6.361-3.373,16.023,16.023,0,0,0,2.944-7.521A8.173,8.173,0,0,0,526.688,72.182Z" transform="translate(-491.654 -69.957)" fill="#13679a"/>
    <path id="Path_65" data-name="Path 65" d="M537.4,72.323l-.16-.493a3.053,3.053,0,0,0-.631-1.091,1.8,1.8,0,0,0-1.059-.647,1.7,1.7,0,0,0-1.189.368,4.08,4.08,0,0,0-.87.755l-.359.429,1.863,2.158Z" transform="translate(-492.226 -69.962)" fill="#13679a"/>
    <path id="Path_66" data-name="Path 66" d="M538.907,78.778a12.452,12.452,0,0,1-4.261,8.438,15,15,0,0,1-1.537,1.191,13.307,13.307,0,0,1-6.3,2.031l-.323.027-.211-.251a2.724,2.724,0,0,1-.689-1.788,3.6,3.6,0,0,1,.326-1.394l.168-.393.417,0a8.545,8.545,0,0,0,4.51-1.193,12.909,12.909,0,0,0,3.433-2.965l.032-.039a10.925,10.925,0,0,0,1.62-3.738,8.072,8.072,0,0,0-.389-1.872c-.08-.26-.173-.531-.281-.813v0a2.848,2.848,0,0,1,2.844-1.507h0q.171.523.3,1.034a9.749,9.749,0,0,1,.361,2.723s0,.185-.026.508" transform="translate(-491.968 -70.113)" fill="#13679a"/>
    <path id="Path_67" data-name="Path 67" d="M554.2,79.6a6.405,6.405,0,0,1,3.057-.883,3.5,3.5,0,0,1,.4.037c.533.267.967.468,1.32.614l.39.16.3-.3a2.805,2.805,0,0,0,.784-1.934l.012-.376-.309-.2c-.427-.277-1.178-.8-2.228-1.538a59.3,59.3,0,0,0-5.812-3.766,10.457,10.457,0,0,0-4.976-1.449,8.786,8.786,0,0,0-6.2,2.389l-.209.2v.289a2.649,2.649,0,0,0,1.139,2.322l.393.267.363-.307a6.208,6.208,0,0,1,4.145-1.826A10.635,10.635,0,0,1,550.92,74.4a26.69,26.69,0,0,1,3.419,2.063,11.86,11.86,0,0,0-2.122.844s-7.071,3.656-13.249,2.274l-.728,3.05S544.259,85.04,554.2,79.6" transform="translate(-492.401 -69.958)" fill="#13679a"/>
  </g>
</svg>
